<svg xmlns="http://www.w3.org/2000/svg" width="209.782" height="65.351" viewBox="0 0 209.782 65.351">
  <g id="logo" transform="translate(0 0)">
    <path id="Fill_6" data-name="Fill 6" d="M7.407,49.44h0A12.311,12.311,0,0,1,5.6,49.3a5.731,5.731,0,0,1-4.112-2.38C.131,44.974-.282,41.864.186,37.137A152.059,152.059,0,0,1,2.9,22.031l.205-.972a7.968,7.968,0,0,1,.927-2.47,4.656,4.656,0,0,1,4.113-2.47,3.164,3.164,0,0,1,2.646,1.111c1.293,1.654.575,4.616.567,4.646-.026.137-2.624,13.739-2.624,15.434,0,.02-.382,1.977.456,3a1.768,1.768,0,0,0,1.443.614,3.381,3.381,0,0,0,1.762-.386,5.4,5.4,0,0,0,1.934-2.271c1.538-2.892,2.91-8.412,4.194-16.875a9.758,9.758,0,0,1,1.145-3.721,3.37,3.37,0,0,1,3.057-1.557,6.5,6.5,0,0,1,.728.043,3.523,3.523,0,0,1,2.526,1.258c.932,1.22.8,3.028.577,4.467-.313,2.034-1.881,15.022-1.943,15.907a4.639,4.639,0,0,0,.92,3.548,3.056,3.056,0,0,0,2.309.911c2.657,0,6.017-2.307,8.362-5.74a138.241,138.241,0,0,1,2.365-14.387,84.367,84.367,0,0,1,3.41-11.791,28.8,28.8,0,0,1,5.3-9.353A3.24,3.24,0,0,1,49.528,0,2.821,2.821,0,0,1,51.94,1.363,4.177,4.177,0,0,1,52.52,3.7a8.348,8.348,0,0,1-.891,3.343c-2.8,5.9-5.21,17.26-5.149,18.94l.017-.022c.643-.71,6.381-7,9.988-9a8.425,8.425,0,0,1,3.936-1.251A3.105,3.105,0,0,1,63.2,17.15a3.326,3.326,0,0,1,.525,2.581,7.059,7.059,0,0,1-2.739,3.684c-.1.071-9.524,7.143-10.494,8.9-.523.948-.469,2.827.132,4.569A8.09,8.09,0,0,0,55,41.774a6.969,6.969,0,0,0,2.745.577,9.064,9.064,0,0,0,5.479-2.2,2.693,2.693,0,0,1,.361-.258,28.272,28.272,0,0,1,1.255-7.935,26.531,26.531,0,0,1,3.26-7.025,22.753,22.753,0,0,1,6.518-6.492,15.641,15.641,0,0,1,8.579-2.6,12.987,12.987,0,0,1,6.057,1.4c1.543.832,2.465,1.924,2.465,2.922,0,1.958-1.194,9.833-1.836,14.064-.139.915-.248,1.637-.309,2.058-.2,1.356-.548,4.626.39,5.709a.971.971,0,0,0,.76.355c2.366,0,5.4-3.719,6.858-5.507.2-.247.376-.461.511-.619a3.328,3.328,0,0,1,2.427-1.187,2.567,2.567,0,0,1,2.209,1.309,3.567,3.567,0,0,1,.385,3.541c-.625,1.523-2.218,3.2-4.869,5.121-3.655,2.65-6.442,3.884-8.772,3.885-2.728,0-4.76-1.738-6.213-5.314,0,0,0,.005-.009.011a24.336,24.336,0,0,1-3.334,2.659,14.364,14.364,0,0,1-7.462,2.67c-2.787,0-5.132-1.377-6.972-4.094,0,0,0,0-.006.007a17.356,17.356,0,0,1-2.8,2.021A13.815,13.815,0,0,1,55.9,48.877a10.1,10.1,0,0,1-5.735-1.8,18.589,18.589,0,0,1-5.648-6.749.1.1,0,0,1,0,.019,21.811,21.811,0,0,1-.911,4.239,9.321,9.321,0,0,1-1.493,2.929,3.188,3.188,0,0,1-2.5,1.331,3.23,3.23,0,0,1-2.5-1.011C35.784,46.375,35.99,43.8,36,43.7l-.005.008a13.643,13.643,0,0,1-10.651,5.325c-.436,0-.882-.021-1.325-.063a6.809,6.809,0,0,1-4.923-3.232,11.505,11.505,0,0,1-1.39-2.9.04.04,0,0,1,0,.009,13.568,13.568,0,0,1-2.478,3.29,11.933,11.933,0,0,1-3.206,2.269A10.632,10.632,0,0,1,7.407,49.44ZM83.643,22.31h-.028A11.465,11.465,0,0,0,77.956,24.1c-2.85,1.859-4.622,4.993-5.268,9.315-.474,3.171-.179,5.562.831,6.734a2.163,2.163,0,0,0,1.676.786c1.489,0,3.215-1.359,4.5-3.546,3.022-5.128,4.253-13.623,4.384-14.575a.449.449,0,0,0-.106-.355A.444.444,0,0,0,83.643,22.31Z" transform="translate(106.365 14.761)" fill="#302c2e"/>
    <path id="Fill_9" data-name="Fill 9" d="M43.641.333c-2.871-.99-5.186.326-6,2.622A230.993,230.993,0,0,1,27.721,28.2C21.081,11.508,11.058,2.821,10.575,2.409A4.414,4.414,0,0,0,4.85,9.128c.112.095,13.137,12.541,18.367,27.768C12.795,55.09,5.6,54.321,5.137,54.318c-2.714,0-5.548,1.226-5.087,5.2C.662,63.751,6,63.1,6,63.1,8.184,62.888,27.922,59.47,46.9,6.134c.817-2.3-.624-4.89-3.263-5.8" transform="translate(71.137 2.213)" fill="#302c2e"/>
    <path id="Fill_1" data-name="Fill 1" d="M51.851,18.974,33.5,1.593a5.924,5.924,0,0,0-9.061,1.176l-2.248,3.78L33.761,17.5a1.334,1.334,0,0,1,0,1.958,1.52,1.52,0,0,1-2.068,0L20.7,9.055,7.591,31.1l6.2,5.87a1.334,1.334,0,0,1,0,1.958,1.52,1.52,0,0,1-2.068,0L6.1,33.611.771,42.573C-2.08,47.367,3.529,52.68,8.59,49.979L31.366,37.826l-8.548-8.1a1.334,1.334,0,0,1,0-1.958,1.521,1.521,0,0,1,2.068,0l9.126,8.645,16.6-8.857a5.28,5.28,0,0,0,1.241-8.583" transform="translate(0 13.112)" fill="#ff790f"/>
    <path id="Fill_4" data-name="Fill 4" d="M2.541,21.4,0,18.866,6.794,1.255a1.962,1.962,0,1,1,3.66,1.412L5.259,16.132l9.475-3.688A1.962,1.962,0,1,1,16.157,16.1Z" transform="translate(43.915 0)" fill="#52b03c"/>
  </g>
</svg>
