<?xml version="1.0" encoding="utf-8"?>
<!-- Generator: Adobe Illustrator 23.0.6, SVG Export Plug-In . SVG Version: 6.00 Build 0)  -->
<svg version="1.1" id="Calque_1" xmlns="http://www.w3.org/2000/svg" xmlns:xlink="http://www.w3.org/1999/xlink" x="0px" y="0px"
	 viewBox="0 0 500 200" style="enable-background:new 0 0 500 200;" xml:space="preserve">
<style type="text/css">
	.st0{fill:#3C3C3C;}
	.st1{fill:#8563C7;}
	.st2{fill:#FFFFFF;}
</style>
<g id="logo_shop_4_">
	<g id="logo_cartouche_horizontal_9_">
		<g>
			<path class="st0" d="M142.3,52.7c0.6,0,1.2,0,1.8,0.1c0.6,0.1,1.2,0.2,1.7,0.4s0.9,0.5,1.2,0.9c0.3,0.3,0.5,1,0.5,1.8
				c0,0.8-0.2,1.4-0.5,1.8s-0.8,0.8-1.2,0.9c-0.5,0.2-1,0.3-1.7,0.4c-0.8,0.1-1.2,0.1-1.8,0.1h-5.4v6.1h2.8c0.6,0,1.2,0,1.8,0.1
				c0.6,0,1.1,0.2,1.6,0.4s0.9,0.5,1.1,0.9c0.3,0.4,0.4,1,0.4,1.7s-0.1,1.3-0.4,1.7c-0.3,0.4-0.8,0.8-1.1,0.9
				c-0.5,0.2-1,0.3-1.6,0.4c-0.6,0-1.2,0.1-1.8,0.1h-2.8v6.4h5.4c0.6,0,1.2,0,1.8,0.1c0.6,0.1,1.2,0.2,1.7,0.4
				c0.5,0.2,0.9,0.5,1.2,0.9c0.3,0.4,0.5,1,0.5,1.8s-0.2,1.4-0.5,1.8c-0.3,0.4-0.8,0.8-1.2,1c-0.5,0.2-1,0.3-1.7,0.4
				c-0.6,0-1.2,0.1-1.8,0.1h-8.7c-0.8,0-1.5-0.1-1.9-0.4c-0.5-0.3-0.8-0.8-1-1.2s-0.3-1-0.4-1.6c0-0.6-0.1-1.2-0.1-1.9V57.8
				c0-0.6,0-1.3,0.1-1.9c0-0.6,0.2-1.2,0.4-1.6c0.2-0.5,0.5-0.9,1-1.2c0.5-0.3,1.1-0.4,1.9-0.4C133.5,52.7,142.3,52.7,142.3,52.7z"
				/>
			<path class="st0" d="M152.2,57.8c0-0.6,0-1.3,0.1-1.9c0-0.6,0.2-1.2,0.4-1.6c0.2-0.5,0.5-0.9,1-1.1c0.5-0.2,1.1-0.4,1.9-0.4h7.4
				c1.8,0.1,3.5,0.5,4.9,1.2c0.6,0.3,1.2,0.8,1.8,1.1c0.6,0.4,1.1,1,1.6,1.6s0.8,1.4,1.1,2.4c0.3,0.9,0.4,1.9,0.4,3.1
				c0,0.2,0,0.6-0.1,0.9c0,0.4-0.1,0.8-0.3,1.3c-0.1,0.5-0.4,1-0.6,1.5c-0.3,0.5-0.6,1-1,1.5c-0.4,0.5-0.9,0.9-1.5,1.3
				c-0.6,0.4-1.3,0.8-2.1,0.9c0.5,0.2,1,0.5,1.6,0.8c0.6,0.3,1,0.8,1.5,1.3c0.4,0.5,0.8,1.1,1.1,1.9c0.3,0.8,0.4,1.6,0.4,2.5v3.2
				c0,0.2,0,0.3,0.1,0.4c0.1,0.1,0.2,0.2,0.3,0.3c0.4,0.4,0.6,0.8,0.6,0.9c0.1,0.3,0.1,0.5,0.1,0.6c0,0.5-0.1,1-0.3,1.3
				c-0.2,0.4-0.5,0.6-0.8,0.9c-0.3,0.2-0.8,0.4-1.1,0.5s-0.9,0.1-1.3,0.1c-0.5,0-1-0.1-1.5-0.2c-0.5-0.2-1-0.4-1.4-0.8
				c-0.4-0.3-0.8-0.8-1-1.1c-0.3-0.4-0.4-1-0.4-1.5v-4.9c0-0.8,0-1.3-0.1-1.8c-0.1-0.5-0.3-1-0.5-1.4c-0.3-0.4-0.6-0.8-1-0.9
				c-0.4-0.2-1-0.3-1.7-0.3h-2.5v7.4c0,0.8,0,1.3-0.1,1.9c-0.1,0.6-0.2,1.2-0.4,1.7c-0.2,0.5-0.5,0.9-1,1.2c-0.5,0.3-1.1,0.4-2,0.4
				c-0.8,0-1.5-0.1-1.9-0.4c-0.5-0.3-0.8-0.8-1-1.2s-0.3-1-0.4-1.7c-0.1-0.8-0.1-1.3-0.1-1.9V57.8H152.2z M162,66.3
				c0.8,0,1.4-0.2,2-0.5c0.3-0.1,0.5-0.3,0.8-0.5c0.2-0.2,0.5-0.5,0.6-0.8c0.2-0.3,0.3-0.8,0.5-1.1c0.1-0.4,0.2-0.9,0.2-1.5
				c0-0.5-0.1-0.9-0.2-1.3s-0.3-0.8-0.4-1c-0.2-0.3-0.4-0.5-0.6-0.8c-0.2-0.2-0.5-0.3-0.8-0.5c-0.6-0.3-1.2-0.4-1.9-0.5H159v8.4
				L162,66.3L162,66.3z"/>
			<path class="st0" d="M195.2,74.8h0.5V56.2c0-0.5,0-0.9,0.1-1.4c0.1-0.4,0.2-0.8,0.4-1.1c0.2-0.3,0.5-0.6,0.9-0.8
				c0.4-0.2,0.9-0.3,1.6-0.3c0.8,0,1.4,0.1,1.8,0.3c0.4,0.2,0.8,0.4,1,0.8c0.2,0.3,0.4,0.8,0.4,1.1c0.1,0.4,0.1,0.9,0.1,1.4V79
				c0,0.8,0,1.3-0.1,1.9c0,0.6-0.2,1.2-0.4,1.6c-0.2,0.5-0.5,0.9-1,1.2c-0.5,0.3-1.1,0.4-1.9,0.4h-2.8c-0.8,0-1.3-0.1-1.8-0.4
				c-0.5-0.3-0.9-0.6-1.2-1c-0.3-0.3-0.6-0.8-0.8-1.2c-0.2-0.4-0.3-0.8-0.4-1.1l-6.8-18.3h-0.5v18.6c0,0.5,0,0.9-0.1,1.4
				c-0.1,0.4-0.2,0.8-0.4,1.1c-0.2,0.3-0.5,0.6-0.9,0.8c-0.4,0.2-0.9,0.3-1.6,0.3c-0.8,0-1.4-0.1-1.8-0.3c-0.4-0.2-0.8-0.4-1-0.8
				c-0.2-0.3-0.4-0.8-0.4-1.1c-0.1-0.4-0.1-0.9-0.1-1.4V57.8c0-0.6,0-1.3,0.1-1.9c0-0.6,0.2-1.2,0.4-1.7c0.2-0.5,0.5-0.9,1-1.2
				c0.5-0.3,1.1-0.4,1.9-0.4h2.9c0.8,0,1.4,0.1,1.8,0.4c0.5,0.3,0.9,0.6,1.1,0.9c0.3,0.4,0.6,0.9,0.8,1.4L195.2,74.8z"/>
			<path class="st0" d="M228,72.7c0,1,0.1,2,0.1,3.1c0,1.1,0.1,2.1,0.1,3.1v0.8c0,0.6,0,1.1-0.1,1.6c0,0.5-0.2,1-0.3,1.4
				c-0.2,0.4-0.5,0.8-0.9,1c-0.4,0.3-1,0.4-1.8,0.4c-0.8,0-1.4-0.1-1.8-0.4c-0.4-0.3-0.8-0.6-0.9-1c-0.2-0.4-0.3-0.9-0.4-1.4
				c-0.1-0.5-0.1-1.1-0.1-1.7v-3.1H213v3.1c0,0.6,0,1.1-0.1,1.7c-0.1,0.6-0.2,1-0.4,1.4c-0.2,0.4-0.5,0.8-0.9,1
				c-0.4,0.3-1,0.4-1.8,0.4c-0.8,0-1.4-0.1-1.8-0.4c-0.4-0.3-0.8-0.6-0.9-1c-0.2-0.4-0.3-0.9-0.3-1.4c0-0.5,0-1.1,0-1.6V79
				c0-0.5,0-1,0-1.5c0-0.5,0-1,0-1.6c0-0.5,0-1.1,0-1.6c0-0.5,0-1,0-1.5c0.8-2.6,1.5-5.3,2.4-7.9c0.8-2.7,1.6-5.4,2.4-7.9
				c0.1-0.5,0.3-1.1,0.5-1.6c0.2-0.5,0.5-1,0.8-1.3c0.3-0.4,0.8-0.8,1.3-0.9c0.5-0.2,1.2-0.3,2.1-0.3h2.3c0.8,0,1.5,0.1,2,0.3
				s1,0.5,1.3,0.9c0.3,0.4,0.6,0.8,0.8,1.3c0.2,0.5,0.4,1,0.5,1.6L228,72.7z M213.9,70.6h7.1l-3.2-12.1h-0.5L213.9,70.6z"/>
			<path class="st0" d="M246.6,52.7c0.6,0,1.2,0,1.8,0.1c0.6,0,1.1,0.2,1.6,0.4s0.9,0.5,1.2,0.9c0.3,0.4,0.5,1,0.5,1.8
				c0,0.8-0.2,1.3-0.5,1.8c-0.3,0.5-0.8,0.8-1.2,0.9c-0.5,0.2-1,0.3-1.6,0.4c-0.6,0.1-1.2,0.1-1.8,0.1h-2.4V79c0,0.6,0,1.3-0.1,1.9
				c0,0.6-0.2,1.2-0.4,1.6c-0.2,0.5-0.5,0.9-1,1.1c-0.5,0.3-1.1,0.4-2,0.4c-0.9,0-1.5-0.1-2-0.4c-0.5-0.3-0.8-0.8-1-1.1
				c-0.2-0.5-0.3-1-0.4-1.6c0-0.6-0.1-1.2-0.1-1.9V59H235c-0.6,0-1.2,0-1.8-0.1c-0.6-0.1-1.1-0.2-1.6-0.4s-0.9-0.5-1.2-0.9
				c-0.3-0.3-0.5-1-0.5-1.8s0.2-1.4,0.5-1.8s0.8-0.8,1.2-0.9c0.5-0.2,1-0.3,1.6-0.4s1.2-0.1,1.8-0.1L246.6,52.7L246.6,52.7z"/>
			<path class="st0" d="M255.6,57.8c0-0.6,0-1.3,0.1-1.9c0.1-0.6,0.2-1.2,0.5-1.6c0.2-0.5,0.6-0.9,1.1-1.2c0.5-0.3,1.2-0.4,2-0.4
				c0.8,0,1.5,0.1,2,0.4c0.5,0.3,0.9,0.8,1.1,1.2c0.2,0.5,0.4,1,0.5,1.6c0.1,0.6,0.1,1.2,0.1,1.9V79c0,0.8,0,1.3-0.1,1.9
				c-0.1,0.6-0.2,1.2-0.5,1.6c-0.2,0.5-0.6,0.9-1.1,1.2c-0.5,0.3-1.2,0.4-2,0.4c-0.8,0-1.5-0.1-2-0.4c-0.5-0.3-0.9-0.8-1.1-1.2
				c-0.2-0.5-0.4-1-0.5-1.6c-0.1-0.6-0.1-1.2-0.1-1.9L255.6,57.8L255.6,57.8z"/>
			<path class="st0" d="M285.7,52.7c0.4,0,0.8,0.1,1.2,0.2c0.4,0.1,0.8,0.4,1.1,0.6c0.3,0.3,0.5,0.6,0.8,0.9
				c0.2,0.4,0.3,0.8,0.3,1.1c0,0.2,0,0.4,0,0.5c0,0.2,0,0.3-0.1,0.5c0,0.2-0.1,0.3-0.1,0.4c-1,4-2.1,8-3.2,12.2
				c-1.1,4.2-2.3,8.3-3.2,12.1c-0.2,0.5-0.5,1-0.9,1.3c-0.3,0.3-0.8,0.8-1.2,0.9c-0.5,0.3-1.1,0.4-1.9,0.4h-0.8
				c-0.8,0-1.4-0.1-1.9-0.4c-0.5-0.3-0.9-0.6-1.2-0.9c-0.4-0.4-0.8-0.8-0.9-1.3L267.4,57c0-0.1-0.1-0.3-0.1-0.4
				c-0.1-0.3-0.1-0.6-0.1-1s0.1-0.8,0.3-1.1c0.2-0.3,0.4-0.6,0.8-0.9c0.3-0.3,0.6-0.5,1-0.6c0.3-0.1,0.8-0.2,1.3-0.2
				c0.8,0,1.3,0.2,1.7,0.5c0.4,0.3,0.8,0.8,1,1c0.3,0.4,0.5,1,0.6,1.5c0.2,0.8,0.4,1.5,0.6,2.4c0.2,0.9,0.4,1.8,0.6,2.8
				c0.2,1,0.4,2,0.6,3c0.2,1,0.4,2,0.6,2.9c0.5,2.3,0.9,4.5,1.4,6.9h0.8c0.5-2.4,1-4.6,1.5-6.9c0.2-0.9,0.4-1.9,0.6-2.9
				c0.2-1,0.4-2,0.6-3s0.4-1.9,0.6-2.8c0.2-0.9,0.4-1.7,0.5-2.4c0.1-0.6,0.4-1.1,0.6-1.5c0.3-0.4,0.6-0.8,1-1
				C284.4,52.9,285.1,52.7,285.7,52.7z"/>
			<path class="st0" d="M293,57.8c0-0.6,0-1.3,0.1-1.9c0.1-0.6,0.2-1.2,0.5-1.6c0.2-0.5,0.6-0.9,1.1-1.2c0.5-0.3,1.2-0.4,2-0.4
				c0.9,0,1.5,0.1,2,0.4c0.5,0.3,0.9,0.8,1.1,1.2c0.2,0.5,0.4,1,0.5,1.6c0.1,0.6,0.1,1.2,0.1,1.9V79c0,0.8,0,1.3-0.1,1.9
				c-0.1,0.6-0.2,1.2-0.5,1.6c-0.2,0.5-0.6,0.9-1.1,1.2c-0.5,0.3-1.2,0.4-2,0.4c-0.9,0-1.5-0.1-2-0.4c-0.5-0.3-0.9-0.8-1.1-1.2
				c-0.2-0.5-0.4-1-0.5-1.6c-0.1-0.6-0.1-1.2-0.1-1.9V57.8z"/>
			<path class="st1" d="M316.5,80.4c0,1.3-0.3,2.3-1,2.8c-0.6,0.6-1.5,0.9-2.7,0.9c-1.2,0-2.1-0.3-2.7-0.9c-0.6-0.6-1-1.5-1-2.8
				s0.3-2.3,1-2.8c0.6-0.6,1.6-0.9,2.7-0.9c1.2,0,2.3,0.3,2.8,0.9C316.2,78.1,316.5,79.1,316.5,80.4z"/>
			<g>
				<path class="st1" d="M337.2,51.6c0.6,0,1.3,0,1.9,0.1c0.6,0.1,1.2,0.2,1.7,0.4c0.5,0.2,0.9,0.6,1.3,1.1c0.3,0.5,0.5,1.1,0.5,1.9
					s-0.2,1.4-0.5,1.9c-0.3,0.5-0.8,0.8-1.3,1.1c-0.5,0.2-1.1,0.4-1.7,0.4c-0.6,0.1-1.3,0.1-1.9,0.1h-5.6v6.1h3c0.6,0,1.2,0,1.9,0.1
					c0.6,0,1.2,0.2,1.7,0.4c0.5,0.2,0.9,0.6,1.3,1c0.3,0.5,0.5,1.1,0.5,2c0,1-0.2,1.5-0.5,2s-0.8,0.8-1.3,1
					c-0.5,0.2-1.1,0.4-1.7,0.4s-1.3,0.1-1.9,0.1h-3v7.5c0,0.8,0,1.4-0.1,2c0,0.6-0.2,1.2-0.4,1.7c-0.2,0.5-0.6,0.9-1.1,1.2
					c-0.5,0.3-1.2,0.5-2.1,0.5c-0.9,0-1.6-0.2-2.1-0.5s-0.8-0.8-1.1-1.2c-0.2-0.5-0.4-1.1-0.4-1.7c0-0.6-0.1-1.3-0.1-2V57
					c0-0.8,0-1.3,0.1-2c0-0.6,0.2-1.2,0.4-1.7c0.2-0.5,0.6-0.9,1.1-1.2c0.4-0.3,1.2-0.5,2.1-0.5h9.3V51.6z"/>
				<path class="st1" d="M346.7,57c0-0.8,0-1.3,0.1-2c0-0.6,0.2-1.2,0.4-1.7c0.2-0.5,0.6-0.9,1.1-1.2c0.4-0.3,1.2-0.5,2-0.5h7.8
					c1.9,0.1,3.8,0.5,5.3,1.2c0.6,0.3,1.3,0.8,1.9,1.2c0.6,0.5,1.2,1,1.7,1.7c0.5,0.8,0.9,1.5,1.2,2.4c0.3,0.9,0.4,2,0.4,3.2
					c0,0.3,0,0.6-0.1,1c0,0.4-0.1,0.9-0.3,1.4c-0.2,0.5-0.4,1-0.6,1.5c-0.3,0.5-0.6,1-1.1,1.5c-0.4,0.5-1,0.9-1.6,1.3
					c-0.6,0.4-1.4,0.8-2.4,1c0.6,0.2,1.1,0.5,1.7,0.9c0.6,0.4,1.1,0.8,1.5,1.4c0.5,0.6,0.8,1.2,1.1,2c0.3,0.8,0.4,1.7,0.4,2.7v3.4
					c0,0.2,0,0.3,0.1,0.5c0.1,0.1,0.2,0.2,0.3,0.3c0.4,0.4,0.6,0.8,0.8,1c0.1,0.2,0.1,0.5,0.1,0.8c0,0.6-0.1,1-0.3,1.4
					c-0.2,0.4-0.5,0.8-0.9,0.9s-0.8,0.4-1.2,0.5c-0.4,0.1-0.9,0.2-1.4,0.2c-0.5,0-1-0.1-1.6-0.2c-0.5-0.2-1-0.4-1.5-0.8
					c-0.4-0.3-0.8-0.8-1.1-1.2c-0.3-0.5-0.4-1-0.4-1.6v-5c0-0.8,0-1.3-0.1-1.9c-0.1-0.6-0.3-1.1-0.5-1.5c-0.3-0.4-0.6-0.8-1.1-1
					c-0.5-0.2-1.1-0.4-1.8-0.4h-2.6v7.9c0,0.8,0,1.4-0.1,2c0,0.8-0.2,1.2-0.4,1.8c-0.2,0.5-0.6,0.9-1.1,1.2
					c-0.5,0.3-1.2,0.5-2.1,0.5c-0.9,0-1.6-0.2-2-0.5c-0.5-0.3-0.8-0.8-1.1-1.2c-0.2-0.5-0.4-1.1-0.4-1.8s-0.1-1.3-0.1-2V57L346.7,57
					z M357.1,66.1c0.8,0,1.5-0.2,2.1-0.6c0.3-0.1,0.5-0.3,0.8-0.5c0.3-0.2,0.5-0.5,0.8-0.8c0.2-0.3,0.4-0.8,0.5-1.2
					c0.1-0.4,0.2-1,0.2-1.5c0-0.5-0.1-1-0.2-1.4c-0.1-0.4-0.3-0.8-0.5-1.1c-0.2-0.3-0.4-0.6-0.8-0.8c-0.2-0.2-0.5-0.4-0.8-0.5
					c-0.6-0.3-1.3-0.5-2-0.5h-3.4V66L357.1,66.1L357.1,66.1z"/>
			</g>
		</g>
		<g>
			<g>
				<g>
					<path class="st1" d="M74.4,80.5c0,0.5,0.2,1,0.3,1.4c0.2,0.4,0.5,0.8,0.9,1c0.4,0.2,1,0.4,1.7,0.4s1.3-0.1,1.7-0.4
						c0.4-0.2,0.8-0.6,0.9-1c0.2-0.4,0.3-0.9,0.3-1.4c0-0.5,0.1-1,0.1-1.6v-0.8c0-1,0-1.9-0.1-3c0-1-0.1-2-0.1-3l-4.4-15.3
						c-0.2-0.5-0.3-1.1-0.5-1.6c-0.2-0.5-0.5-0.9-0.8-1.3c-0.3-0.4-0.8-0.8-1.3-0.9c-0.5-0.2-1.2-0.3-2-0.3h-2.3
						c-0.8,0-1.5,0.1-2,0.3c-0.5,0.2-0.9,0.5-1.3,0.9c-0.3,0.4-0.6,0.8-0.8,1.3c-0.2,0.5-0.4,1-0.5,1.6c-0.8,2.5-1.5,5.2-2.4,7.7
						c-0.8,2.6-1.6,5.2-2.4,7.7c0,0.5,0,1,0,1.5s0,1,0,1.6c0,0.5,0,1,0,1.5c0,0.5,0,1,0,1.4v0.6c0,0.6,0,1.1,0,1.6
						c0,0.5,0.1,1,0.3,1.4c0.2,0.4,0.5,0.8,0.9,1c0.4,0.2,1,0.4,1.7,0.4c0.8,0,1.3-0.1,1.7-0.4c0.4-0.2,0.8-0.6,0.9-1
						c0.1-0.3,0.3-0.9,0.3-1.4c0-0.5,0.1-1.1,0.1-1.6v-3h8.7v3C74.3,79.4,74.3,80,74.4,80.5z M66.5,70.1l3.2-11.8h0.5l3.2,11.8H66.5
						z"/>
				</g>
				<g>
					<path class="st1" d="M92.6,55.9c-0.1-0.6-0.2-1.1-0.4-1.6c-0.2-0.5-0.6-0.9-1-1.1c-0.5-0.3-1.1-0.4-1.9-0.4
						c-0.9,0-1.4,0.1-1.8,0.4c-0.4,0.3-0.8,0.8-1,1.1c-0.2,0.5-0.4,1-0.4,1.6c-0.1,0.6-0.1,1.2-0.1,1.8V80c0,0.8,0.1,1.3,0.3,1.8
						c0.2,0.4,0.5,0.8,0.9,1c0.4,0.2,0.9,0.4,1.5,0.4c0.6,0.1,1.3,0.1,2,0.1h6.2c0.6,0,1.2,0,1.8-0.1c0.6-0.1,1.1-0.2,1.6-0.4
						c0.5-0.2,0.8-0.5,1.1-1s0.4-1,0.4-1.8c0-0.8-0.1-1.3-0.4-1.7s-0.6-0.8-1.1-1c-0.5-0.2-1-0.4-1.6-0.4c-0.6-0.1-1.2-0.1-1.8-0.1
						h-4.3V57.7C92.7,57.1,92.6,56.5,92.6,55.9z"/>
				</g>
				<g>
					<path class="st1" d="M110.7,80.1c0,0.6,0.2,1.1,0.4,1.6c0.2,0.5,0.5,0.8,1,1.1s1.1,0.4,1.9,0.4c0.8,0,1.5-0.1,1.9-0.4
						s0.8-0.8,1-1.1c0.2-0.5,0.3-1,0.4-1.6c0-0.6,0.1-1.2,0.1-1.8V58.9h2.3c0.6,0,1.2,0,1.7-0.1c0.6-0.1,1.1-0.2,1.6-0.4
						s0.9-0.5,1.2-0.9c0.3-0.3,0.4-1,0.4-1.7s-0.1-1.3-0.4-1.7s-0.8-0.8-1.2-0.9c-0.5-0.2-1-0.3-1.6-0.4c-0.6,0-1.2-0.1-1.7-0.1
						h-11.1c-0.6,0-1.2,0-1.7,0.1c-0.5,0.1-1.1,0.2-1.6,0.4c-0.5,0.2-0.9,0.5-1.2,0.9c-0.3,0.4-0.4,1-0.4,1.7s0.1,1.3,0.4,1.7
						c0.3,0.4,0.8,0.8,1.2,0.9c0.5,0.2,1,0.3,1.6,0.4c0.6,0.1,1.2,0.1,1.7,0.1h2.3v19.4C110.6,78.9,110.6,79.5,110.7,80.1z"/>
				</g>
			</g>
			<g>
				<path class="st0" d="M431.3,28.1l-9.9-10.7c-1.2-1.3-3.1-1.4-4.4-0.2s-1.4,3.1-0.2,4.4l5,5.5H42.3c-1.7,0-3.1,1.4-3.1,3.1v76.2
					c0,1.7,1.4,3.1,3.1,3.1h346.6c1.7,0,3.1-1.4,3.1-3.1V47.4c0-1.7-1.4-3.1-3.1-3.1h-12.3c-1.7,0-3.1,1.4-3.1,3.1
					c0,1.7,1.4,3.1,3.1,3.1h9.2v52.8H45.4v-70h377.3l-4.6,5.6c-1.1,1.3-0.9,3.3,0.4,4.4c0.6,0.5,1.3,0.8,2,0.8
					c0.9,0,1.8-0.4,2.4-1.1l8-9.9c0.2-0.3,0.4-0.6,0.5-0.9c0.2-0.2,0.3-0.4,0.4-0.8C432.4,30.2,432.2,29,431.3,28.1z"/>
			</g>
		</g>
	</g>
	<g id="NEWS_1_">
		
			<rect x="312" y="88.6" transform="matrix(0.9364 -0.351 0.351 0.9364 -19.5446 142.1604)" class="st1" width="140.7" height="72.8"/>
		<g>
			<path class="st2" d="M349.1,147.3l0.5-0.2l-7-18.7c-0.2-0.5-0.3-0.9-0.4-1.4c-0.1-0.4-0.1-0.9,0-1.3c0.1-0.4,0.3-0.8,0.6-1.1
				c0.3-0.3,0.8-0.6,1.5-0.9c0.8-0.3,1.4-0.4,1.9-0.4c0.5,0,0.9,0.1,1.3,0.4c0.3,0.2,0.6,0.5,0.8,1c0.2,0.4,0.4,0.8,0.6,1.3
				l8.6,22.7c0.2,0.8,0.5,1.3,0.8,1.9c0.2,0.6,0.3,1.2,0.3,1.8c0,0.6-0.2,1.1-0.6,1.5c-0.3,0.5-0.9,0.8-1.8,1.2l-3,1.1
				c-0.8,0.3-1.3,0.3-1.9,0.2c-0.6-0.1-1.1-0.3-1.6-0.6c-0.5-0.3-0.9-0.6-1.2-1c-0.3-0.4-0.6-0.8-0.8-0.9l-13.6-15.9l-0.5,0.2
				l7,18.7c0.2,0.5,0.3,0.9,0.4,1.4c0.1,0.4,0.1,0.9,0,1.3c-0.1,0.4-0.3,0.8-0.6,1.1c-0.3,0.3-0.8,0.6-1.5,0.9
				c-0.8,0.3-1.4,0.4-1.9,0.4c-0.5,0-0.9-0.1-1.3-0.4c-0.3-0.2-0.6-0.5-0.8-1c-0.2-0.4-0.4-0.8-0.6-1.3l-8.6-22.7
				c-0.2-0.6-0.5-1.3-0.6-1.9c-0.2-0.6-0.3-1.2-0.2-1.8c0-0.6,0.2-1.1,0.6-1.5c0.3-0.5,0.9-0.8,1.8-1.2l3-1.1c0.8-0.3,1.4-0.4,2-0.2
				c0.6,0.1,1.1,0.3,1.5,0.5c0.5,0.3,0.9,0.6,1.3,1.1L349.1,147.3z"/>
			<path class="st2" d="M366.2,115.7c0.6-0.2,1.2-0.4,1.8-0.6c0.6-0.2,1.2-0.3,1.8-0.2c0.6,0,1.1,0.2,1.6,0.5
				c0.5,0.3,0.9,0.8,1.1,1.6c0.3,0.8,0.3,1.4,0.2,2c-0.2,0.5-0.4,1-0.9,1.4c-0.4,0.4-0.9,0.8-1.5,1c-0.6,0.3-1.2,0.5-1.8,0.8l-5.4,2
				l2.4,6.1l2.8-1.1c0.6-0.2,1.2-0.4,1.8-0.6c0.6-0.2,1.2-0.3,1.7-0.2c0.5,0,1,0.2,1.5,0.5s0.8,0.8,1.1,1.5c0.3,0.8,0.3,1.4,0.2,1.9
				c-0.1,0.5-0.4,1-0.8,1.3c-0.4,0.4-0.9,0.8-1.5,1c-0.6,0.2-1.2,0.5-1.8,0.8l-2.8,1.1l2.4,6.5l5.4-2c0.6-0.2,1.2-0.4,1.8-0.6
				c0.6-0.2,1.2-0.3,1.8-0.2c0.6,0,1.1,0.2,1.6,0.5c0.5,0.3,0.8,0.8,1.1,1.6c0.3,0.8,0.4,1.4,0.2,2c-0.2,0.6-0.4,1-0.9,1.4
				c-0.4,0.4-0.9,0.8-1.5,1c-0.6,0.3-1.2,0.5-1.8,0.8l-8.8,3.3c-0.8,0.3-1.5,0.4-2.1,0.3c-0.6-0.1-1-0.4-1.4-0.8
				c-0.4-0.4-0.8-0.9-1-1.5c-0.2-0.6-0.5-1.2-0.8-1.9l-7.9-21.1c-0.2-0.6-0.5-1.3-0.6-1.9c-0.2-0.6-0.3-1.2-0.2-1.8
				c0-0.6,0.2-1.1,0.6-1.5c0.3-0.5,0.9-0.9,1.8-1.2L366.2,115.7z"/>
			<path class="st2" d="M392.1,106.2c0.4-0.2,0.8-0.2,1.3-0.2c0.4,0,0.8,0.1,1.2,0.2c0.4,0.2,0.8,0.4,1.1,0.8c0.3,0.3,0.6,0.6,0.9,1
				l10.5,16.5l0.8-0.3c-0.5-3.2-0.9-6.4-1.4-9.8c-0.5-3.3-0.9-6.5-1.4-9.8c-0.1-0.6-0.1-1.2,0-1.8c0.1-0.5,0.3-1,0.6-1.4
				c0.3-0.5,0.8-0.8,1.5-1.1c0.5-0.2,1-0.3,1.5-0.2c0.5,0,0.9,0.2,1.3,0.4c0.4,0.2,0.8,0.4,0.9,0.8c0.3,0.3,0.4,0.6,0.6,0.9
				c0.1,0.2,0.1,0.4,0.2,0.5c0,0.2,0.1,0.3,0.1,0.5c0,0.2,0,0.3,0.1,0.4l2.9,26.8c0,0.6-0.2,1.2-0.4,1.7c-0.2,0.5-0.5,0.9-0.9,1.4
				c-0.4,0.5-1,0.8-1.7,1.1l-0.8,0.3c-0.8,0.3-1.4,0.4-2,0.3c-0.6-0.1-1.1-0.3-1.5-0.5c-0.5-0.3-0.9-0.6-1.2-1.1l-8-12l-0.8,0.3
				c0.3,2.4,0.6,4.7,0.9,7.1c0.3,2.5,0.6,4.8,0.9,7.2c0,0.6-0.1,1.1-0.3,1.6c-0.2,0.5-0.4,0.9-0.8,1.4c-0.4,0.5-0.9,0.8-1.7,1.1
				l-0.8,0.3c-0.8,0.3-1.4,0.4-2.1,0.3c-0.6-0.1-1.2-0.2-1.6-0.5c-0.5-0.2-1-0.6-1.4-1l-15-22.3c-0.1-0.1-0.2-0.2-0.2-0.4
				c-0.1-0.1-0.2-0.2-0.2-0.4c-0.1-0.2-0.1-0.3-0.2-0.5c-0.1-0.3-0.2-0.8-0.2-1.1c0-0.4,0.1-0.8,0.2-1.2c0.2-0.4,0.4-0.8,0.8-1.1
				c0.3-0.3,0.8-0.6,1.3-0.8c0.8-0.3,1.3-0.3,1.9-0.1c0.5,0.2,1,0.4,1.4,0.8c0.4,0.4,0.8,0.8,1.2,1.3L392,130l0.8-0.3
				c-0.2-1.5-0.5-3-0.8-4.7c-0.2-1.7-0.5-3.3-0.8-5c-0.2-1.7-0.5-3.3-0.8-5c-0.2-1.6-0.4-3.2-0.6-4.7c-0.1-0.9,0-1.8,0.4-2.6
				C390.6,107.1,391.2,106.5,392.1,106.2z"/>
			<path class="st2" d="M422.5,103.8c0.2,0.6,0.6,1.1,1.2,1.5c0.5,0.4,1.2,0.8,1.9,0.9c0.8,0.2,1.6,0.4,2.5,0.6
				c0.9,0.2,1.8,0.3,2.8,0.5c0.9,0.2,1.9,0.4,2.8,0.8c0.9,0.3,1.8,0.8,2.7,1.1c0.8,0.5,1.6,1.1,2.4,1.9c0.8,0.8,1.3,1.7,1.7,2.8
				l0.1,0.2c0.5,1.2,0.8,2.4,0.8,3.4c0,1-0.1,2-0.3,2.8c-0.2,0.8-0.6,1.6-1.1,2.4c-0.5,0.8-1.1,1.3-1.7,1.8c-0.6,0.5-1.3,1-2,1.4
				c-0.8,0.4-1.4,0.8-2,1l-0.2,0.1c-1.3,0.5-2.4,0.8-3.5,0.9c-1.1,0.1-2,0.1-2.8-0.1c-0.8-0.2-1.6-0.4-2.4-0.8
				c-0.8-0.4-1.2-0.8-1.7-1.3c-0.5-0.5-0.9-1-1.2-1.5c-0.3-0.5-0.6-1.1-0.8-1.6c-0.2-0.5-0.3-1-0.2-1.5c0-0.5,0.2-0.9,0.4-1.2
				c0.2-0.4,0.5-0.8,0.8-0.9c0.3-0.3,0.8-0.5,1.1-0.6c0.4-0.1,0.8-0.2,1.3-0.3c0.5,0,0.9,0,1.3,0.1c0.4,0.1,0.8,0.3,1.2,0.6
				c0.4,0.3,0.6,0.8,0.8,1.2c0.4,1.1,1,1.8,1.6,2s1.4,0.2,2.4-0.2c0.4-0.2,0.8-0.4,1.2-0.6c0.3-0.2,0.6-0.5,0.8-0.9
				c0.2-0.3,0.3-0.8,0.3-1.2c0-0.5-0.1-1-0.3-1.6c-0.3-0.8-0.8-1.4-1.3-1.9c-0.6-0.5-1.3-0.9-2-1.2c-0.8-0.3-1.6-0.6-2.5-0.8
				c-0.9-0.2-1.8-0.4-2.8-0.6c-0.9-0.2-1.9-0.4-2.8-0.8c-0.9-0.3-1.8-0.6-2.6-1c-0.8-0.4-1.5-0.9-2.3-1.6c-0.6-0.6-1.1-1.4-1.5-2.4
				l-0.1-0.4c-0.6-1.6-0.9-3-0.8-4.2c0-1.2,0.3-2.4,0.9-3.2c0.6-0.9,1.4-1.7,2.5-2.4c1.1-0.8,2.4-1.3,4-1.9l0.6-0.2
				c1.4-0.5,2.6-0.8,3.8-0.9c1.1-0.1,2,0,2.8,0.3c0.8,0.2,1.5,0.6,2.1,1c0.6,0.4,1.1,0.9,1.5,1.4c0.4,0.5,0.8,1,0.9,1.5
				c0.2,0.5,0.4,0.9,0.5,1.2c0.2,0.4,0.2,0.9,0.2,1.3c0,0.4-0.2,0.8-0.3,1.2c-0.2,0.4-0.5,0.8-0.8,1c-0.2,0.2-0.8,0.5-1.2,0.8
				c-0.4,0.1-0.8,0.2-1.2,0.2s-0.8-0.1-1.2-0.2c-0.4-0.1-0.8-0.3-1-0.5c-0.3-0.2-0.5-0.5-0.6-0.8c-0.5-1.2-1-2-1.6-2.4
				c-0.6-0.3-1.4-0.3-2.3,0c-0.4,0.2-0.8,0.3-1.2,0.5c-0.4,0.2-0.8,0.4-0.9,0.8c-0.2,0.3-0.3,0.8-0.3,1.2
				C422.1,102.4,422.2,102.9,422.5,103.8z"/>
		</g>
	</g>
</g>
</svg>
