<?xml version="1.0" encoding="UTF-8"?> <svg xmlns="http://www.w3.org/2000/svg" width="200" height="50" viewBox="0 0 200 50" fill="none"><path fill-rule="evenodd" clip-rule="evenodd" d="M73.6853 36.7411V0H65.3667V36.7411H73.6853ZM21.3273 10.9381C23.4285 12.035 25.1681 13.7154 26.337 15.7774C27.5347 18.0574 28.1605 20.5943 28.1605 23.1697C28.1605 25.7452 27.5347 28.2821 26.337 30.5621C25.1682 32.6241 23.4285 34.3046 21.3273 35.4014C19.0752 36.5054 16.6005 37.0793 14.0924 37.0793C11.5844 37.0793 9.10959 36.5054 6.85757 35.4014C4.74607 34.3102 2.99715 32.6289 1.82353 30.5621C0.625796 28.2821 0 25.7452 0 23.1697C0 20.5943 0.625796 18.0574 1.82353 15.7774C2.99746 13.7106 4.74661 12.0293 6.8583 10.9381C9.11032 9.83414 11.5851 9.26019 14.0931 9.26019C16.6012 9.26019 19.076 9.83414 21.328 10.9381H21.3273ZM10.0913 18.1858C9.00443 19.3369 8.46124 20.9987 8.46172 23.1712C8.46221 25.3437 9.0054 26.9974 10.0913 28.1322C10.6025 28.6826 11.2242 29.1187 11.9157 29.4121C12.6072 29.7054 13.3529 29.8493 14.1039 29.8345C14.8515 29.8507 15.594 29.7073 16.2818 29.4138C16.9696 29.1202 17.5869 28.6833 18.0924 28.1322C19.1621 26.9974 19.6971 25.3437 19.6973 23.1712C19.6976 20.9987 19.1626 19.3369 18.0924 18.1858C17.5905 17.6289 16.9745 17.1864 16.2864 16.8886C15.5984 16.5907 14.8542 16.4444 14.1046 16.4596C13.3514 16.4456 12.6038 16.5923 11.9118 16.89C11.2198 17.1876 10.5991 17.6294 10.0913 18.1858ZM57.124 12.4224C58.9556 14.4975 59.8716 17.3509 59.8721 20.9825V36.7411H51.5535V21.9564C51.5535 20.1401 51.0752 18.7216 50.1186 17.7009C49.6279 17.1884 49.0334 16.7866 48.375 16.5224C47.7165 16.2581 47.0092 16.1375 46.3004 16.1686C44.6141 16.1686 43.2766 16.7037 42.2878 17.7739C41.299 18.844 40.8051 20.3676 40.8061 22.3444V36.7411H32.4893V9.60128H40.8061V14.5623C41.5614 12.9667 42.7713 11.6299 44.2839 10.7198C45.9245 9.75255 47.8031 9.26393 49.707 9.30922C52.8199 9.30922 55.2922 10.3469 57.124 12.4224ZM85.6983 9.60132L92.2155 26.2353L98.2958 9.60132H107.488L90.5605 49.679H81.4184L87.79 35.7196L76.4087 9.60132H85.6983ZM136.34 23.1574C136.34 30.6442 130.271 36.7135 122.784 36.7135C115.297 36.7135 109.228 30.6442 109.228 23.1574C109.228 15.6706 115.297 9.60132 122.784 9.60132C130.271 9.60132 136.34 15.6706 136.34 23.1574ZM165.974 12.4224C167.806 14.4975 168.722 17.3509 168.722 20.9826V36.7411H160.403V21.9565C160.403 20.1402 159.925 18.7216 158.968 17.7009C158.478 17.1884 157.883 16.7866 157.225 16.5224C156.566 16.2582 155.859 16.1376 155.15 16.1687C153.464 16.1687 152.126 16.7037 151.138 17.7739C150.149 18.8441 149.655 20.3676 149.656 22.3444V36.7411H141.337V9.60129H149.656V14.5623C150.411 12.9668 151.621 11.6299 153.133 10.7198C154.774 9.75251 156.653 9.26388 158.556 9.30923C161.67 9.30923 164.142 10.3469 165.974 12.4224ZM180.93 24.6788H199.753C199.907 23.9425 199.989 23.1929 199.997 22.4407C200.045 20.0398 199.467 17.6678 198.319 15.5584C197.221 13.5843 195.573 11.971 193.577 10.9138C191.368 9.82178 188.936 9.25575 186.472 9.25997C184.008 9.26419 181.579 9.83856 179.374 10.9381C177.322 12.0329 175.639 13.7079 174.534 15.7538C173.383 17.8457 172.807 20.3182 172.807 23.1712C172.748 25.745 173.351 28.2908 174.559 30.5643C175.667 32.6134 177.349 34.295 179.398 35.4036C181.443 36.437 183.691 37.0076 185.981 37.0748C188.272 37.142 190.549 36.7043 192.652 35.7927C194.434 34.9851 196 33.7687 197.224 32.2422C198.415 30.7516 199.217 28.9883 199.558 27.1108H190.755C190.508 28.0651 189.941 28.9061 189.15 29.4941C188.26 30.1352 187.181 30.4605 186.085 30.4182C184.756 30.4673 183.461 29.9862 182.486 29.0807C181.546 28.189 181.027 26.7217 180.93 24.6788ZM186.475 15.8269C187.825 15.787 189.139 16.2656 190.147 17.1644C191.135 18.0565 191.614 19.3941 191.582 21.1769H180.978C181.108 19.4263 181.676 18.0969 182.681 17.1887C183.725 16.2666 185.082 15.7792 186.475 15.8269Z" fill="url(#paint0_linear)"></path><path opacity="0.5" d="M122.784 36.7135C130.271 36.7135 136.34 30.6442 136.34 23.1574C136.34 15.6706 130.271 9.60132 122.784 9.60132C115.297 9.60132 109.228 15.6706 109.228 23.1574C109.228 30.6442 115.297 36.7135 122.784 36.7135Z" fill="white"></path><defs><linearGradient id="paint0_linear" x1="0" y1="49.679" x2="200" y2="49.679" gradientUnits="userSpaceOnUse"><stop stop-color="#00BD86"></stop><stop offset="1" stop-color="#44D2FC"></stop></linearGradient></defs></svg> 